# xmcd
#
# Track frame offsets: 
#        150
#        16488
#        33049
#        54870
#        74173
#        92631
#        112184
#        129971
#        147802
#        163680
#        185285
#        202191
#        220084
#
# Disc length: 3125 seconds
#
# Revision: 3
# Processed by: cddbd v1.5.2PL0 Copyright (c) Steve Scherf et al.
# Submitted via: ExactAudioCopyFreeDBPlugin 1.0
#
DISCID=b80c330d
DTITLE=Mighty Sam McClain - Betcha Didn't Know
DYEAR=2005
DGENRE=Blues
TTITLE0=Can´t Stop The Funk
TTITLE1=Lift Me Up
TTITLE2=Never Go Away
TTITLE3=Betcha Didn´t Know
TTITLE4=Don´t Doubt My Love
TTITLE5=What You Want Me To Do
TTITLE6=Things Ain´t What They Used To Be
TTITLE7=Just Wanna Be
TTITLE8=My Love Will Never Die
TTITLE9=Free
TTITLE10=Funky Love
TTITLE11=Hold On To Your Dreams
TTITLE12=Be Ready
EXTD=
EXTT0=
EXTT1=
EXTT2=
EXTT3=
EXTT4=
EXTT5=
EXTT6=
EXTT7=
EXTT8=
EXTT9=
EXTT10=
EXTT11=
EXTT12=
PLAYORDER=
